<?xml version="1.0" standalone="no"?>
<!DOCTYPE svg PUBLIC "-//W3C//DTD SVG 20010904//EN"
 "http://www.w3.org/TR/2001/REC-SVG-20010904/DTD/svg10.dtd">
<svg version="1.0" xmlns="http://www.w3.org/2000/svg"
 width="1158.741178pt" height="288.515342pt" viewBox="0 0 1158.741178 288.515342"
 preserveAspectRatio="xMidYMid meet">
<metadata>
Created by potrace 1.12, written by Peter Selinger 2001-2015
</metadata>
<g transform="translate(-78.142738,354.619404) scale(0.100000,-0.100000)"
fill="#000000" stroke="none">
<path d="M1840 3544 c-96 -8 -109 -14 -171 -73 l-60 -58 51 5 c27 2 50 1 50
-4 0 -5 -19 -22 -41 -38 -22 -15 -38 -30 -35 -33 2 -3 30 4 61 16 68 26 133
28 142 5 3 -9 -4 -36 -16 -61 -12 -25 -20 -48 -17 -50 9 -9 115 89 126 118 24
56 40 62 147 56 136 -8 351 -27 393 -36 31 -6 39 -15 70 -74 19 -37 65 -102
103 -143 37 -41 67 -80 67 -86 0 -6 -48 -61 -108 -122 -59 -61 -147 -167 -196
-235 -73 -101 -99 -130 -147 -160 -201 -124 -189 -111 -284 -306 -32 -67 -65
-113 -125 -180 -69 -75 -93 -111 -145 -217 l-62 -127 -94 -62 c-141 -92 -166
-115 -208 -187 -44 -76 -272 -307 -312 -317 -13 -3 -57 1 -98 10 -61 13 -77
13 -87 3 -12 -13 -53 -274 -61 -388 -4 -46 0 -77 10 -103 24 -56 41 -48 74 35
55 140 403 491 670 675 106 73 232 138 237 121 3 -7 16 -55 30 -107 47 -168
92 -241 149 -241 21 0 22 4 23 92 0 113 14 171 46 206 14 15 28 35 31 45 6 16
27 17 254 17 305 1 495 13 551 36 83 33 105 111 57 205 -47 95 -149 232 -254
341 -54 57 -64 73 -65 105 -1 36 1 38 65 73 36 20 81 48 100 62 19 14 57 38
84 53 28 15 80 52 116 81 36 30 73 54 80 54 8 0 57 -43 109 -96 52 -52 124
-115 160 -139 36 -25 76 -53 90 -64 66 -51 117 -27 143 66 17 62 71 371 89
513 12 90 3 223 -13 185 -4 -11 -8 -33 -8 -49 -1 -42 -12 -26 -26 41 l-13 58
-1 -65 c-2 -59 -3 -63 -16 -46 -8 11 -15 40 -15 65 0 25 -5 53 -10 61 -7 10
-10 -9 -10 -62 0 -43 -4 -78 -9 -78 -6 0 -16 28 -23 63 -6 34 -14 53 -16 42
-3 -11 1 -50 8 -88 15 -78 4 -106 -24 -62 -9 14 -21 23 -26 20 -13 -8 5 -51
47 -109 33 -47 35 -53 31 -110 -5 -58 -70 -236 -87 -236 -4 0 -22 13 -41 28
-19 16 -54 41 -77 55 -35 22 -44 35 -58 83 -13 46 -28 67 -81 119 -62 61 -80
95 -49 95 8 0 24 -13 37 -30 12 -16 29 -30 38 -30 9 0 37 14 63 30 26 17 56
30 67 30 21 0 50 25 50 44 0 7 9 21 21 32 35 31 49 70 49 131 0 64 -24 126
-60 158 -17 15 -40 21 -101 24 -102 4 -117 -6 -157 -101 -17 -40 -37 -77 -45
-82 -20 -13 -46 9 -64 54 -14 34 -296 322 -398 405 l-48 40 -341 1 c-188 1
-361 -1 -386 -2z m664 -1760 c-8 -7 -58 -26 -112 -44 -90 -30 -109 -33 -259
-38 -97 -3 -163 -1 -163 5 0 5 30 34 68 65 37 31 93 84 126 117 l59 59 148
-76 c120 -63 145 -79 133 -88z"/>
<path d="M4828 2522 l-56 -3 -6 -37 c-4 -20 -3 -50 2 -67 11 -39 37 -44 270
-44 200 -1 232 -8 270 -56 28 -35 30 -110 4 -140 -41 -49 -43 -50 -288 -55
-133 -3 -238 -10 -243 -15 -25 -25 -25 -406 -1 -445 7 -11 27 -15 70 -14 33 1
63 4 66 7 3 3 8 71 11 151 l6 146 116 -1 116 0 78 -127 c115 -187 105 -177
180 -177 40 0 70 5 81 14 15 13 14 18 -15 70 -18 31 -61 100 -95 154 -35 54
-64 99 -64 101 0 2 22 17 50 34 30 19 62 50 80 79 28 43 30 54 30 137 0 108
-18 154 -80 215 -64 62 -96 69 -325 73 -110 2 -226 2 -257 0z"/>
<path d="M7301 2521 c-12 -7 -16 -47 -19 -179 l-4 -169 -274 -5 c-151 -3 -277
-8 -281 -12 -4 -4 -8 -115 -8 -246 0 -183 3 -242 13 -252 13 -13 126 -17 139
-5 3 4 8 83 11 177 l5 170 197 0 197 0 5 -170 c3 -94 8 -173 12 -177 9 -9 134
-8 143 1 9 8 11 851 3 859 -11 11 -126 17 -139 8z"/>
<path d="M8052 2523 c-27 -5 -37 -25 -132 -248 -112 -264 -151 -368 -141 -378
14 -14 83 -20 121 -10 41 11 40 10 137 241 37 89 70 162 74 162 6 0 186 -424
197 -462 4 -17 -14 -18 -287 -18 l-291 0 -21 -42 c-12 -23 -25 -55 -29 -70
-16 -53 -14 -53 431 -53 358 0 410 2 424 16 14 14 8 34 -70 225 -134 326 -256
608 -270 622 -13 14 -104 24 -143 15z"/>
<path d="M8829 2523 c-44 -4 -47 -6 -53 -39 -4 -18 -4 -49 -1 -68 l7 -33 75
-7 c42 -3 136 -6 208 -6 73 0 146 -3 163 -6 50 -10 72 -38 72 -92 0 -91 -14
-96 -282 -102 -154 -4 -221 -9 -230 -18 -13 -13 -17 -116 -6 -128 4 -3 98 -8
210 -11 263 -5 284 -8 320 -43 22 -23 28 -37 28 -73 0 -80 -5 -81 -284 -88
-132 -3 -248 -9 -258 -13 -29 -13 -39 -98 -14 -132 14 -18 28 -19 248 -18 262
1 314 10 390 67 59 45 79 88 79 179 1 88 -11 121 -59 170 l-36 38 22 38 c34
62 46 132 32 199 -10 50 -20 65 -64 108 -31 31 -67 55 -92 63 -42 12 -389 24
-475 15z"/>
<path d="M9809 2524 c-15 -4 -18 -31 -24 -192 -8 -188 0 -670 11 -681 10 -11
125 -4 137 8 17 17 17 835 0 852 -12 12 -97 21 -124 13z"/>
<path d="M10783 2273 c-132 -309 -151 -359 -138 -372 6 -5 42 -11 80 -15 l70
-6 60 142 c32 79 72 172 88 208 l29 65 14 -27 c22 -42 184 -435 184 -447 0 -8
-87 -11 -290 -11 l-289 0 -17 -31 c-8 -17 -22 -48 -29 -69 -23 -66 -33 -65
426 -65 356 0 410 2 424 16 14 14 8 34 -66 215 -99 245 -256 614 -269 634 -6
10 -32 16 -88 18 l-79 4 -110 -259z"/>
<path d="M11690 2524 c-43 -6 -60 -27 -60 -74 0 -73 1 -73 252 -79 227 -6 243
-9 270 -46 4 -5 8 -30 8 -55 0 -25 -4 -49 -8 -55 -27 -37 -43 -40 -270 -46
-251 -6 -252 -6 -252 -79 0 -73 0 -73 261 -80 207 -5 238 -7 266 -25 57 -34
68 -110 21 -151 -18 -17 -45 -20 -264 -24 -281 -6 -278 -5 -278 -91 0 -32 5
-54 14 -59 43 -27 444 -23 540 6 58 17 127 67 152 111 46 79 31 209 -34 279
l-38 42 26 50 c21 41 26 63 26 130 0 53 -6 90 -16 110 -22 42 -102 110 -145
123 -37 11 -408 21 -471 13z"/>
<path d="M5788 2498 c-2 -13 -2 -44 0 -70 l4 -48 324 0 324 0 0 70 0 70 -324
0 -324 0 -4 -22z"/>
<path d="M6715 2438 c-3 -46 -3 -108 2 -138 8 -50 11 -55 41 -64 20 -6 47 -6
70 0 l37 9 3 138 3 137 -75 0 -74 0 -7 -82z"/>
<path d="M5853 2163 l-62 -4 -7 -36 c-4 -20 -3 -52 2 -72 l9 -36 100 -8 c131
-11 474 -2 488 12 11 11 16 125 5 136 -8 8 -445 15 -535 8z"/>
<path d="M5864 1803 l-72 -4 -7 -45 c-3 -25 -4 -58 0 -73 l6 -29 147 -7 c142
-8 490 0 501 10 7 8 6 133 -1 141 -8 7 -474 13 -574 7z"/>
<path d="M10084 1803 c-39 -4 -42 -6 -48 -41 -3 -21 -3 -54 0 -74 l6 -36 85
-7 c47 -4 121 -4 164 0 75 7 81 9 90 33 6 15 7 47 4 73 l-7 46 -60 7 c-61 6
-158 6 -234 -1z"/>
</g>
</svg>
